<svg width="40" height="40" viewBox="0 0 40 40" fill="none" xmlns="http://www.w3.org/2000/svg">
<rect width="40" height="40" fill="#FFF3B7"/>
<path d="M24.1537 13.6262C24.1541 14.2342 24.0344 14.8363 23.8013 15.3981C23.5682 15.9599 23.2263 16.4705 22.7952 16.9007C22.3641 17.3308 21.8521 17.6722 21.2886 17.9052C20.7251 18.1383 20.121 18.2584 19.5109 18.2589C18.9008 18.2593 18.2966 18.1399 17.7327 17.9077C17.1689 17.6754 16.6565 17.3348 16.2247 16.9052C15.793 16.4756 15.4504 15.9655 15.2166 15.404C14.9827 14.8425 14.8621 14.2406 14.8617 13.6326C14.8608 12.4048 15.3495 11.227 16.2202 10.3582C17.0909 9.4894 18.2723 9.00085 19.5045 9C20.7367 8.99915 21.9188 9.48608 22.7907 10.3537C23.6626 11.2213 24.1529 12.3984 24.1537 13.6262ZM19.5 20.8601C14.3315 20.8601 10.1309 24.9331 10 30H29C28.8691 24.9331 24.6685 20.8601 19.5 20.8601Z" stroke="white" stroke-width="1.5" stroke-linecap="round" stroke-linejoin="round"/>
</svg>
