<svg width="20px" height="20px" viewBox="0 0 20 20" fill="none" xmlns="http://www.w3.org/2000/svg" class=""><path d="M10 18C14.4183 18 18 14.4183 18 10C18 5.58172 14.4183 2 10 2C5.58172 2 2 5.58172 2 10C2 14.4183 5.58172 18 10 18Z" fill="white"></path><path d="M17.5 10C17.5 14.1421 14.1421 17.5 10 17.5V18.5C14.6944 18.5 18.5 14.6944 18.5 10H17.5ZM10 17.5C5.85786 17.5 2.5 14.1421 2.5 10H1.5C1.5 14.6944 5.30558 18.5 10 18.5V17.5ZM2.5 10C2.5 5.85786 5.85786 2.5 10 2.5V1.5C5.30558 1.5 1.5 5.30558 1.5 10H2.5ZM10 2.5C14.1421 2.5 17.5 5.85786 17.5 10H18.5C18.5 5.30558 14.6944 1.5 10 1.5V2.5Z" fill="#DADEE5"></path><path d="M7 7L13 13M13 7L7 13" stroke="#363C45" stroke-linecap="round"></path></svg>